<?xml version="1.0" encoding="UTF-8" standalone="no"?>
<svg xmlns="http://www.w3.org/2000/svg" width="1920" height="1080" viewBox="0 0 1920 1080">
  <defs>
    <linearGradient id="bgGradient" x1="0%" y1="0%" x2="100%" y2="100%">
      <stop offset="0%" style="stop-color:#0A1128;stop-opacity:1" />
      <stop offset="50%" style="stop-color:#1A2980;stop-opacity:1" />
      <stop offset="100%" style="stop-color:#26408B;stop-opacity:1" />
    </linearGradient>
    <filter id="glow" x="-50%" y="-50%" width="200%" height="200%">
      <feGaussianBlur stdDeviation="10" result="blur" />
      <feComposite in="SourceGraphic" in2="blur" operator="over" />
    </filter>
  </defs>
  
  <!-- Background -->
  <rect width="100%" height="100%" fill="url(#bgGradient)" />
  
  <!-- Grid pattern -->
  <pattern id="grid" width="100" height="100" patternUnits="userSpaceOnUse">
    <path d="M 100 0 L 0 0 0 100" fill="none" stroke="rgba(255,255,255,0.05)" stroke-width="1" />
  </pattern>
  <rect width="100%" height="100%" fill="url(#grid)" />
  
  <!-- Abstract data visualization elements -->
  <!-- Candlestick patterns -->
  <g opacity="0.15">
    <line x1="200" y1="300" x2="200" y2="400" stroke="#4CAF50" stroke-width="2" />
    <rect x="195" y="320" width="10" height="60" fill="#4CAF50" />
    
    <line x1="240" y1="280" x2="240" y2="420" stroke="#F44336" stroke-width="2" />
    <rect x="235" y="280" width="10" height="80" fill="#F44336" />
    
    <line x1="280" y1="320" x2="280" y2="380" stroke="#4CAF50" stroke-width="2" />
    <rect x="275" y="340" width="10" height="20" fill="#4CAF50" />
    
    <line x1="320" y1="300" x2="320" y2="400" stroke="#F44336" stroke-width="2" />
    <rect x="315" y="300" width="10" height="60" fill="#F44336" />
    
    <line x1="360" y1="340" x2="360" y2="420" stroke="#4CAF50" stroke-width="2" />
    <rect x="355" y="360" width="10" height="40" fill="#4CAF50" />
  </g>
  
  <!-- Stock chart lines -->
  <g opacity="0.2" filter="url(#glow)">
    <polyline points="100,800 200,750 300,780 400,720 500,740 600,700 700,650 800,680 900,630 1000,610 1100,640 1200,600 1300,580 1400,620 1500,590 1600,550 1700,570 1800,530" 
              stroke="#4FC3F7" stroke-width="3" fill="none" />
              
    <polyline points="100,850 200,830 300,860 400,840 500,870 600,850 700,820 800,840 900,810 1000,830 1100,800 1200,820 1300,790 1400,810 1500,780 1600,800 1700,770 1800,750" 
              stroke="#FF9800" stroke-width="3" fill="none" />
              
    <polyline points="100,900 200,880 300,910 400,890 500,920 600,900 700,930 800,910 900,940 1000,920 1100,950 1200,930 1300,960 1400,940 1500,970 1600,950 1700,980 1800,960" 
              stroke="#9C27B0" stroke-width="3" fill="none" />
  </g>
  
  <!-- Floating data points -->
  <g opacity="0.6">
    <circle cx="300" cy="200" r="2" fill="#ffffff" />
    <circle cx="600" cy="300" r="2" fill="#ffffff" />
    <circle cx="900" cy="250" r="2" fill="#ffffff" />
    <circle cx="1200" cy="350" r="2" fill="#ffffff" />
    <circle cx="1500" cy="200" r="2" fill="#ffffff" />
    <circle cx="400" cy="400" r="2" fill="#ffffff" />
    <circle cx="700" cy="350" r="2" fill="#ffffff" />
    <circle cx="1000" cy="450" r="2" fill="#ffffff" />
    <circle cx="1300" cy="400" r="2" fill="#ffffff" />
    <circle cx="1600" cy="450" r="2" fill="#ffffff" />
    <circle cx="500" cy="500" r="2" fill="#ffffff" />
    <circle cx="800" cy="550" r="2" fill="#ffffff" />
    <circle cx="1100" cy="500" r="2" fill="#ffffff" />
    <circle cx="1400" cy="550" r="2" fill="#ffffff" />
    <circle cx="1700" cy="500" r="2" fill="#ffffff" />
  </g>
  
  <!-- Digital network connections -->
  <g opacity="0.1">
    <line x1="300" y1="200" x2="600" y2="300" stroke="#ffffff" stroke-width="1" />
    <line x1="600" y1="300" x2="900" y2="250" stroke="#ffffff" stroke-width="1" />
    <line x1="900" y1="250" x2="1200" y2="350" stroke="#ffffff" stroke-width="1" />
    <line x1="1200" y1="350" x2="1500" y2="200" stroke="#ffffff" stroke-width="1" />
    <line x1="400" y1="400" x2="700" y2="350" stroke="#ffffff" stroke-width="1" />
    <line x1="700" y1="350" x2="1000" y2="450" stroke="#ffffff" stroke-width="1" />
    <line x1="1000" y1="450" x2="1300" y2="400" stroke="#ffffff" stroke-width="1" />
    <line x1="1300" y1="400" x2="1600" y2="450" stroke="#ffffff" stroke-width="1" />
    <line x1="500" y1="500" x2="800" y2="550" stroke="#ffffff" stroke-width="1" />
    <line x1="800" y1="550" x2="1100" y2="500" stroke="#ffffff" stroke-width="1" />
    <line x1="1100" y1="500" x2="1400" y2="550" stroke="#ffffff" stroke-width="1" />
    <line x1="1400" y1="550" x2="1700" y2="500" stroke="#ffffff" stroke-width="1" />
  </g>
  
  <!-- Glowing orbs -->
  <circle cx="960" cy="540" r="200" fill="url(#bgGradient)" opacity="0.3" filter="url(#glow)" />
  <circle cx="300" cy="800" r="100" fill="url(#bgGradient)" opacity="0.2" filter="url(#glow)" />
  <circle cx="1600" cy="300" r="150" fill="url(#bgGradient)" opacity="0.2" filter="url(#glow)" />
</svg>
