<?xml version="1.0" encoding="UTF-8" standalone="no"?>
<svg xmlns="http://www.w3.org/2000/svg" width="1200" height="800" viewBox="0 0 1200 800">
  <defs>
    <linearGradient id="bgGradient" x1="0%" y1="0%" x2="100%" y2="100%">
      <stop offset="0%" style="stop-color:#0F172A;stop-opacity:1" />
      <stop offset="100%" style="stop-color:#1E293B;stop-opacity:1" />
    </linearGradient>
    <linearGradient id="cardGradient" x1="0%" y1="0%" x2="100%" y2="0%">
      <stop offset="0%" style="stop-color:#1E293B;stop-opacity:1" />
      <stop offset="100%" style="stop-color:#334155;stop-opacity:1" />
    </linearGradient>
    <linearGradient id="chartGradient" x1="0%" y1="0%" x2="0%" y2="100%">
      <stop offset="0%" style="stop-color:#4F46E5;stop-opacity:0.7" />
      <stop offset="100%" style="stop-color:#4F46E5;stop-opacity:0" />
    </linearGradient>
    <linearGradient id="chartGradient2" x1="0%" y1="0%" x2="0%" y2="100%">
      <stop offset="0%" style="stop-color:#06B6D4;stop-opacity:0.7" />
      <stop offset="100%" style="stop-color:#06B6D4;stop-opacity:0" />
    </linearGradient>
    <filter id="shadow" x="-20%" y="-20%" width="140%" height="140%">
      <feDropShadow dx="0" dy="4" stdDeviation="10" flood-color="#000" flood-opacity="0.3" />
    </filter>
  </defs>
  
  <!-- Dashboard Background -->
  <rect width="1200" height="800" rx="12" fill="url(#bgGradient)" />
  
  <!-- Header -->
  <g transform="translate(30, 30)">
    <!-- Logo -->
    <g transform="translate(0, 0)">
      <circle cx="25" cy="25" r="25" fill="#4F46E5" />
      <text x="60" y="35" font-family="Arial, sans-serif" font-size="24" font-weight="bold" fill="#FFFFFF">StockSense AI</text>
    </g>
    
    <!-- Navigation -->
    <g transform="translate(250, 0)">
      <rect width="120" height="40" rx="8" fill="#4F46E5" />
      <text x="60" y="25" font-family="Arial, sans-serif" font-size="14" font-weight="bold" fill="#FFFFFF" text-anchor="middle">Dashboard</text>
      
      <rect x="130" width="120" height="40" rx="8" fill="#334155" />
      <text x="190" y="25" font-family="Arial, sans-serif" font-size="14" fill="#FFFFFF" text-anchor="middle">Stocks</text>
      
      <rect x="260" width="120" height="40" rx="8" fill="#334155" />
      <text x="320" y="25" font-family="Arial, sans-serif" font-size="14" fill="#FFFFFF" text-anchor="middle">Analysis</text>
      
      <rect x="390" width="120" height="40" rx="8" fill="#334155" />
      <text x="450" y="25" font-family="Arial, sans-serif" font-size="14" fill="#FFFFFF" text-anchor="middle">Strategies</text>
      
      <rect x="520" width="120" height="40" rx="8" fill="#334155" />
      <text x="580" y="25" font-family="Arial, sans-serif" font-size="14" fill="#FFFFFF" text-anchor="middle">AI Chatbot</text>
    </g>
    
    <!-- User Profile -->
    <g transform="translate(1000, 0)">
      <circle cx="20" cy="20" r="20" fill="#818CF8" />
      <text x="20" y="25" font-family="Arial, sans-serif" font-size="14" font-weight="bold" fill="#FFFFFF" text-anchor="middle">U</text>
    </g>
  </g>
  
  <!-- Main Content -->
  <g transform="translate(30, 100)">
    <!-- Page Title -->
    <text x="0" y="30" font-family="Arial, sans-serif" font-size="28" font-weight="bold" fill="#FFFFFF">Dashboard Overview</text>
    <text x="0" y="60" font-family="Arial, sans-serif" font-size="16" fill="#94A3B8">Welcome back! Here's your investment summary.</text>
    
    <!-- Market Overview Cards -->
    <g transform="translate(0, 80)">
      <!-- Card 1 -->
      <g filter="url(#shadow)">
        <rect width="350" height="180" rx="12" fill="url(#cardGradient)" />
        <text x="20" y="30" font-family="Arial, sans-serif" font-size="16" font-weight="bold" fill="#FFFFFF">Market Overview</text>
        
        <!-- Market Stats -->
        <g transform="translate(20, 60)">
          <text x="0" y="0" font-family="Arial, sans-serif" font-size="14" fill="#94A3B8">S&P 500</text>
          <text x="100" y="0" font-family="Arial, sans-serif" font-size="14" fill="#FFFFFF">4,783.35</text>
          <text x="200" y="0" font-family="Arial, sans-serif" font-size="14" fill="#10B981">+1.24%</text>
          
          <text x="0" y="30" font-family="Arial, sans-serif" font-size="14" fill="#94A3B8">NASDAQ</text>
          <text x="100" y="30" font-family="Arial, sans-serif" font-size="14" fill="#FFFFFF">16,742.39</text>
          <text x="200" y="30" font-family="Arial, sans-serif" font-size="14" fill="#10B981">+1.56%</text>
          
          <text x="0" y="60" font-family="Arial, sans-serif" font-size="14" fill="#94A3B8">DOW</text>
          <text x="100" y="60" font-family="Arial, sans-serif" font-size="14" fill="#FFFFFF">38,239.05</text>
          <text x="200" y="60" font-family="Arial, sans-serif" font-size="14" fill="#10B981">+0.87%</text>
          
          <text x="0" y="90" font-family="Arial, sans-serif" font-size="14" fill="#94A3B8">NIFTY 50</text>
          <text x="100" y="90" font-family="Arial, sans-serif" font-size="14" fill="#FFFFFF">22,456.80</text>
          <text x="200" y="90" font-family="Arial, sans-serif" font-size="14" fill="#EF4444">-0.32%</text>
        </g>
      </g>
      
      <!-- Card 2 -->
      <g transform="translate(370, 0)" filter="url(#shadow)">
        <rect width="350" height="180" rx="12" fill="url(#cardGradient)" />
        <text x="20" y="30" font-family="Arial, sans-serif" font-size="16" font-weight="bold" fill="#FFFFFF">Portfolio Performance</text>
        
        <!-- Portfolio Value -->
        <text x="20" y="70" font-family="Arial, sans-serif" font-size="14" fill="#94A3B8">Total Value</text>
        <text x="20" y="100" font-family="Arial, sans-serif" font-size="28" font-weight="bold" fill="#FFFFFF">$128,456.92</text>
        <text x="20" y="130" font-family="Arial, sans-serif" font-size="16" fill="#10B981">+$3,245.67 (2.59%)</text>
        
        <!-- Mini Chart -->
        <polyline points="200,140 220,130 240,135 260,120 280,110 300,105 320,90" stroke="#10B981" stroke-width="3" fill="none" />
      </g>
      
      <!-- Card 3 -->
      <g transform="translate(740, 0)" filter="url(#shadow)">
        <rect width="350" height="180" rx="12" fill="url(#cardGradient)" />
        <text x="20" y="30" font-family="Arial, sans-serif" font-size="16" font-weight="bold" fill="#FFFFFF">AI Recommendations</text>
        
        <!-- Recommendations -->
        <g transform="translate(20, 60)">
          <circle cx="10" cy="0" r="6" fill="#10B981" />
          <text x="25" y="5" font-family="Arial, sans-serif" font-size="14" fill="#FFFFFF">Buy AAPL - Strong growth potential</text>
          
          <circle cx="10" cy="30" r="6" fill="#10B981" />
          <text x="25" y="35" font-family="Arial, sans-serif" font-size="14" fill="#FFFFFF">Buy MSFT - Positive AI momentum</text>
          
          <circle cx="10" cy="60" r="6" fill="#EF4444" />
          <text x="25" y="65" font-family="Arial, sans-serif" font-size="14" fill="#FFFFFF">Sell NFLX - Increasing competition</text>
          
          <circle cx="10" cy="90" r="6" fill="#F59E0B" />
          <text x="25" y="95" font-family="Arial, sans-serif" font-size="14" fill="#FFFFFF">Hold AMZN - Wait for Q2 earnings</text>
        </g>
      </g>
    </g>
    
    <!-- Charts Section -->
    <g transform="translate(0, 290)">
      <!-- Main Chart -->
      <g filter="url(#shadow)">
        <rect width="720" height="350" rx="12" fill="url(#cardGradient)" />
        <text x="20" y="30" font-family="Arial, sans-serif" font-size="16" font-weight="bold" fill="#FFFFFF">Portfolio Performance</text>
        
        <!-- Chart Controls -->
        <g transform="translate(500, 20)">
          <rect width="60" height="24" rx="12" fill="#4F46E5" />
          <text x="30" y="16" font-family="Arial, sans-serif" font-size="12" fill="#FFFFFF" text-anchor="middle">1D</text>
          
          <rect x="70" width="60" height="24" rx="12" fill="#334155" />
          <text x="100" y="16" font-family="Arial, sans-serif" font-size="12" fill="#FFFFFF" text-anchor="middle">1W</text>
          
          <rect x="140" width="60" height="24" rx="12" fill="#334155" />
          <text x="170" y="16" font-family="Arial, sans-serif" font-size="12" fill="#FFFFFF" text-anchor="middle">1M</text>
        </g>
        
        <!-- Chart Grid -->
        <g transform="translate(40, 60)" stroke="#475569" stroke-width="1" stroke-dasharray="5,5">
          <line x1="0" y1="0" x2="640" y2="0" />
          <line x1="0" y1="60" x2="640" y2="60" />
          <line x1="0" y1="120" x2="640" y2="120" />
          <line x1="0" y1="180" x2="640" y2="180" />
          <line x1="0" y1="240" x2="640" y2="240" />
        </g>
        
        <!-- Chart Labels -->
        <g transform="translate(20, 300)" fill="#94A3B8" font-family="Arial, sans-serif" font-size="12">
          <text x="20" y="20" text-anchor="middle">9AM</text>
          <text x="100" y="20" text-anchor="middle">10AM</text>
          <text x="180" y="20" text-anchor="middle">11AM</text>
          <text x="260" y="20" text-anchor="middle">12PM</text>
          <text x="340" y="20" text-anchor="middle">1PM</text>
          <text x="420" y="20" text-anchor="middle">2PM</text>
          <text x="500" y="20" text-anchor="middle">3PM</text>
          <text x="580" y="20" text-anchor="middle">4PM</text>
        </g>
        
        <!-- Chart Lines -->
        <g transform="translate(40, 60)">
          <!-- Area Chart 1 -->
          <path d="M0,180 C40,160 80,140 120,150 C160,160 200,120 240,110 C280,100 320,80 360,70 C400,60 440,80 480,60 C520,40 560,50 600,30 L600,240 L0,240 Z" fill="url(#chartGradient)" />
          <polyline points="0,180 40,160 80,140 120,150 160,160 200,120 240,110 280,100 320,80 360,70 400,60 440,80 480,60 520,40 560,50 600,30" stroke="#4F46E5" stroke-width="3" fill="none" />
          
          <!-- Area Chart 2 -->
          <path d="M0,200 C40,190 80,180 120,190 C160,200 200,180 240,170 C280,160 320,150 360,160 C400,170 440,150 480,140 C520,130 560,140 600,120 L600,240 L0,240 Z" fill="url(#chartGradient2)" opacity="0.5" />
          <polyline points="0,200 40,190 80,180 120,190 160,200 200,180 240,170 280,160 320,150 360,160 400,170 440,150 480,140 520,130 560,140 600,120" stroke="#06B6D4" stroke-width="3" fill="none" stroke-dasharray="5,5" />
        </g>
        
        <!-- Legend -->
        <g transform="translate(40, 320)">
          <circle cx="10" cy="10" r="6" fill="#4F46E5" />
          <text x="25" y="15" font-family="Arial, sans-serif" font-size="14" fill="#FFFFFF">Portfolio</text>
          
          <circle cx="120" cy="10" r="6" fill="#06B6D4" />
          <text x="135" y="15" font-family="Arial, sans-serif" font-size="14" fill="#FFFFFF">S&P 500</text>
        </g>
      </g>
      
      <!-- Side Panel -->
      <g transform="translate(740, 0)" filter="url(#shadow)">
        <rect width="350" height="350" rx="12" fill="url(#cardGradient)" />
        <text x="20" y="30" font-family="Arial, sans-serif" font-size="16" font-weight="bold" fill="#FFFFFF">Top Holdings</text>
        
        <!-- Holdings List -->
        <g transform="translate(20, 60)">
          <!-- AAPL -->
          <text x="0" y="0" font-family="Arial, sans-serif" font-size="14" font-weight="bold" fill="#FFFFFF">AAPL</text>
          <text x="60" y="0" font-family="Arial, sans-serif" font-size="14" fill="#94A3B8">Apple Inc.</text>
          <text x="200" y="0" font-family="Arial, sans-serif" font-size="14" fill="#FFFFFF">$182.52</text>
          <text x="280" y="0" font-family="Arial, sans-serif" font-size="14" fill="#10B981">+1.8%</text>
          
          <!-- Progress Bar -->
          <rect x="0" y="15" width="310" height="8" rx="4" fill="#334155" />
          <rect x="0" y="15" width="248" height="8" rx="4" fill="#4F46E5" />
          
          <!-- MSFT -->
          <text x="0" y="50" font-family="Arial, sans-serif" font-size="14" font-weight="bold" fill="#FFFFFF">MSFT</text>
          <text x="60" y="50" font-family="Arial, sans-serif" font-size="14" fill="#94A3B8">Microsoft</text>
          <text x="200" y="50" font-family="Arial, sans-serif" font-size="14" fill="#FFFFFF">$415.32</text>
          <text x="280" y="50" font-family="Arial, sans-serif" font-size="14" fill="#10B981">+2.3%</text>
          
          <!-- Progress Bar -->
          <rect x="0" y="65" width="310" height="8" rx="4" fill="#334155" />
          <rect x="0" y="65" width="217" height="8" rx="4" fill="#4F46E5" />
          
          <!-- AMZN -->
          <text x="0" y="100" font-family="Arial, sans-serif" font-size="14" font-weight="bold" fill="#FFFFFF">AMZN</text>
          <text x="60" y="100" font-family="Arial, sans-serif" font-size="14" fill="#94A3B8">Amazon</text>
          <text x="200" y="100" font-family="Arial, sans-serif" font-size="14" fill="#FFFFFF">$182.22</text>
          <text x="280" y="100" font-family="Arial, sans-serif" font-size="14" fill="#10B981">+0.7%</text>
          
          <!-- Progress Bar -->
          <rect x="0" y="115" width="310" height="8" rx="4" fill="#334155" />
          <rect x="0" y="115" width="186" height="8" rx="4" fill="#4F46E5" />
          
          <!-- GOOGL -->
          <text x="0" y="150" font-family="Arial, sans-serif" font-size="14" font-weight="bold" fill="#FFFFFF">GOOGL</text>
          <text x="60" y="150" font-family="Arial, sans-serif" font-size="14" fill="#94A3B8">Alphabet</text>
          <text x="200" y="150" font-family="Arial, sans-serif" font-size="14" fill="#FFFFFF">$172.91</text>
          <text x="280" y="150" font-family="Arial, sans-serif" font-size="14" fill="#EF4444">-0.5%</text>
          
          <!-- Progress Bar -->
          <rect x="0" y="165" width="310" height="8" rx="4" fill="#334155" />
          <rect x="0" y="165" width="155" height="8" rx="4" fill="#4F46E5" />
          
          <!-- TSLA -->
          <text x="0" y="200" font-family="Arial, sans-serif" font-size="14" font-weight="bold" fill="#FFFFFF">TSLA</text>
          <text x="60" y="200" font-family="Arial, sans-serif" font-size="14" fill="#94A3B8">Tesla Inc.</text>
          <text x="200" y="200" font-family="Arial, sans-serif" font-size="14" fill="#FFFFFF">$177.58</text>
          <text x="280" y="200" font-family="Arial, sans-serif" font-size="14" fill="#10B981">+3.2%</text>
          
          <!-- Progress Bar -->
          <rect x="0" y="215" width="310" height="8" rx="4" fill="#334155" />
          <rect x="0" y="215" width="124" height="8" rx="4" fill="#4F46E5" />
          
          <!-- NVDA -->
          <text x="0" y="250" font-family="Arial, sans-serif" font-size="14" font-weight="bold" fill="#FFFFFF">NVDA</text>
          <text x="60" y="250" font-family="Arial, sans-serif" font-size="14" fill="#94A3B8">NVIDIA</text>
          <text x="200" y="250" font-family="Arial, sans-serif" font-size="14" fill="#FFFFFF">$881.86</text>
          <text x="280" y="250" font-family="Arial, sans-serif" font-size="14" fill="#10B981">+2.8%</text>
          
          <!-- Progress Bar -->
          <rect x="0" y="265" width="310" height="8" rx="4" fill="#334155" />
          <rect x="0" y="265" width="93" height="8" rx="4" fill="#4F46E5" />
        </g>
      </g>
    </g>
  </g>
</svg>
