<?xml version="1.0" encoding="UTF-8" standalone="no"?>
<svg xmlns="http://www.w3.org/2000/svg" width="400" height="300" viewBox="0 0 400 300">
  <defs>
    <linearGradient id="bgGradient" x1="0%" y1="0%" x2="100%" y2="100%">
      <stop offset="0%" style="stop-color:#1E293B;stop-opacity:1" />
      <stop offset="100%" style="stop-color:#334155;stop-opacity:1" />
    </linearGradient>
    <filter id="shadow" x="-20%" y="-20%" width="140%" height="140%">
      <feDropShadow dx="0" dy="4" stdDeviation="5" flood-color="#000" flood-opacity="0.3" />
    </filter>
  </defs>
  
  <!-- Background -->
  <rect width="400" height="300" rx="10" fill="url(#bgGradient)" filter="url(#shadow)" />
  
  <!-- Investment Thesis Card -->
  <g transform="translate(50, 70)">
    <rect width="300" height="180" rx="8" fill="#1A1F2E" />
    
    <!-- Card Header -->
    <text x="20" y="30" font-family="Arial, sans-serif" font-size="16" font-weight="bold" fill="#FFFFFF">Investment Thesis: AAPL</text>
    
    <!-- AI Generated Content -->
    <g transform="translate(20, 50)">
      <rect width="260" height="110" rx="6" fill="#334155" />
      
      <!-- Text Lines -->
      <rect x="10" y="10" width="240" height="4" rx="2" fill="#94A3B8" />
      <rect x="10" y="20" width="200" height="4" rx="2" fill="#94A3B8" />
      <rect x="10" y="30" width="220" height="4" rx="2" fill="#94A3B8" />
      <rect x="10" y="40" width="180" height="4" rx="2" fill="#94A3B8" />
      
      <rect x="10" y="55" width="240" height="4" rx="2" fill="#94A3B8" />
      <rect x="10" y="65" width="210" height="4" rx="2" fill="#94A3B8" />
      <rect x="10" y="75" width="230" height="4" rx="2" fill="#94A3B8" />
      
      <rect x="10" y="90" width="180" height="4" rx="2" fill="#94A3B8" />
      
      <!-- AI Badge -->
      <g transform="translate(220, 85)">
        <rect width="30" height="20" rx="10" fill="#4F46E5" />
        <text x="15" y="14" font-family="Arial, sans-serif" font-size="10" font-weight="bold" fill="#FFFFFF" text-anchor="middle">AI</text>
      </g>
    </g>
    
    <!-- Decision Buttons -->
    <g transform="translate(20, 170)">
      <rect width="80" height="30" rx="15" fill="#10B981" />
      <text x="40" y="20" font-family="Arial, sans-serif" font-size="14" font-weight="bold" fill="#FFFFFF" text-anchor="middle">Buy</text>
      
      <rect x="90" width="80" height="30" rx="15" fill="#F59E0B" />
      <text x="130" y="20" font-family="Arial, sans-serif" font-size="14" font-weight="bold" fill="#FFFFFF" text-anchor="middle">Hold</text>
      
      <rect x="180" width="80" height="30" rx="15" fill="#EF4444" />
      <text x="220" y="20" font-family="Arial, sans-serif" font-size="14" font-weight="bold" fill="#FFFFFF" text-anchor="middle">Sell</text>
    </g>
  </g>
  
  <!-- Title -->
  <text x="200" y="40" font-family="Arial, sans-serif" font-size="20" font-weight="bold" fill="#FFFFFF" text-anchor="middle">Make Informed Decisions</text>
</svg>
